# xmcd
#
# Track frame offsets: 
#        150
#        16507
#        43589
#        49892
#        76941
#        89914
#        108269
#        123788
#        135861
#        156292
#        178018
#        192358
#        227423
#
# Disc length: 3291 seconds
#
# Revision: 1
# Processed by: cddbd v1.5.1PL0 Copyright (c) Steve Scherf et al.
# Submitted via: ExactAudioCopy v0.90b4
#
DISCID=980cd90d
DTITLE=Julian Sas - A Smile To My Soul
DYEAR=1997
DGENRE=Blues
TTITLE0=Sugarcup Boogie
TTITLE1=Is This What They Call The Blues
TTITLE2=Horror Tone Groove
TTITLE3=Last Man In First Man Out
TTITLE4=My Love Is Tumblin' Down
TTITLE5=Crossroad Call
TTITLE6=I Want Your Love
TTITLE7=Never Gettin' Tired
TTITLE8=Stone Desert
TTITLE9=My Life Is Gonna Be All Mine
TTITLE10=Boot Hill
TTITLE11=Where Will It End?!
TTITLE12=Makin' My Return
EXTD=
EXTT0=
EXTT1=
EXTT2=
EXTT3=
EXTT4=
EXTT5=
EXTT6=
EXTT7=
EXTT8=
EXTT9=
EXTT10=
EXTT11=
EXTT12=
PLAYORDER=
